<svg xmlns="http://www.w3.org/2000/svg" width="27" height="19" viewBox="0 0 27 19"><g><g><path fill="#3a79f9" d="M18.23 8.963l8.691-7.457c.052.154.077.317.077.488v14.812c0 .154-.025.325-.077.514zm-16.714 9.36l8.768-8.409 3.394 2.752 3.395-2.752 8.768 8.409a1.235 1.235 0 0 1-.437.077H1.927c-.137 0-.274-.026-.411-.077zM1.49.477C1.61.426 1.756.4 1.927.4h23.477c.154 0 .309.026.463.077L17.124 7.96l-1.157.926-2.289 1.877-2.288-1.877-1.157-.926zM.333 16.806V1.994c0-.017.025-.18.077-.488l8.717 7.457L.436 17.32c-.069-.24-.103-.411-.103-.514z"/></g></g></svg>